<svg xmlns="http://www.w3.org/2000/svg" viewBox="0 0 1000 1000" width="48" height="48">
  <rect width="1000" height="1000" rx="100" fill="#fff"/>
  <g transform="translate(180,350) scale(0.65)">
    <rect x="100" y="100" width="800" height="400" rx="50" fill="#016FD0" />
    <polygon points="400,200 450,200 450,350 650,350 650,400 450,400 450,500 400,500" fill="#fff" />
    <polygon points="500,200 700,200 700,250 550,250 550,300 700,300 700,500 650,500 650,350 500,350" fill="#fff" />
    <polygon points="200,300 300,300 325,335 350,300 450,300 375,400 450,500 350,500 325,465 300,500 200,500 275,400" fill="#fff" />
  </g>
</svg> 