<svg xmlns="http://www.w3.org/2000/svg" viewBox="0 0 1000 1000" width="48" height="48">
  <rect width="1000" height="1000" rx="100" fill="#fff"/>
  <g transform="translate(180,350) scale(0.65)">
    <rect x="100" y="100" width="800" height="400" rx="50" fill="#fff" stroke="#F7F7F7" stroke-width="5"/>
    <path d="M235,290 c0,-40 30,-70 70,-70 h220 c10,0 25,5 35,10 c5,5 10,10 15,15 l5,-25 h95 l-50,220 h-95 l5,-25 c-5,5 -10,10 -15,15 c-10,5 -25,10 -35,10 h-50 c-40,0 -70,-30 -70,-70 c0,-5 0,-10 0,-15 l-10,55 h-100 l40,-185 h145 c10,0 15,5 15,15 c0,5 -5,15 -5,20 c-5,-5 -15,-5 -20,-5 h-75 l-25,110 h25 c25,0 45,-20 50,-45 z" fill="#003087"/>
    <path d="M405,260 c5,-20 20,-40 45,-40 h50 c10,0 15,5 15,15 c0,5 -5,15 -5,20 c-5,-5 -15,-5 -20,-5 h-25 c-10,0 -15,5 -15,15 c0,5 5,10 10,10 h15 c10,0 15,5 15,15 c0,5 -5,15 -5,20 c-5,-5 -15,-5 -20,-5 h-15 c-10,0 -15,5 -15,15 c0,5 5,10 10,10 h25 c10,0 15,5 15,15 c0,5 -5,15 -5,20 c-5,-5 -15,-5 -20,-5 h-50 c-40,0 -70,-30 -70,-70 c0,-5 0,-10 0,-15 l-10,55 h-100 l40,-185 h145 c10,0 15,5 15,15 c0,5 -5,15 -5,20 c-5,-5 -15,-5 -20,-5 h-75 l-5,25 h90 z" fill="#0070E0"/>
  </g>
</svg> 